<svg class="svg-icon" style="width: 1em;height: 1em;vertical-align: middle;fill: currentColor;overflow: hidden;" viewBox="0 0 1024 1024" version="1.1" xmlns="http://www.w3.org/2000/svg"><path d="M870.4 797.866667h-725.333333c-25.6 0-42.666667 21.333333-42.666667 42.666666 0 25.6 17.066667 42.666667 42.666667 42.666667h725.333333c21.333333 0 42.666667-17.066667 42.666667-42.666667s-21.333333-42.666667-42.666667-42.666666zM938.666667 396.8c-8.533333-34.133333-42.666667-55.466667-76.8-46.933333l-226.133334 59.733333-277.333333-256c-12.8-12.8-29.866667-12.8-42.666667-8.533333-29.866667 8.533333-42.666667 42.666667-29.866666 68.266666l145.066666 256-213.333333 55.466667L153.6 469.333333c-8.533333-8.533333-25.6-12.8-38.4-8.533333l-12.8 4.266667c-17.066667 4.266667-21.333333 21.333333-12.8 34.133333L170.666667 635.733333c8.533333 17.066667 29.866667 25.6 46.933333 21.333334l674.133333-179.2c34.133333-12.8 55.466667-46.933333 46.933334-81.066667z"  /></svg>