<svg width="259" height="36" viewBox="0 0 259 36" fill="none" xmlns="http://www.w3.org/2000/svg">
<path d="M0.338438 33.848C0.338438 33.592 0.354438 33.416 0.386438 33.32L6.48244 2.696C6.73844 1.544 7.42644 0.967998 8.54644 0.967998H14.5944C15.7464 0.967998 16.4344 1.544 16.6584 2.696L22.8984 33.32C22.9304 33.416 22.9464 33.608 22.9464 33.896C22.9464 34.92 22.3544 35.432 21.1704 35.432H20.5944C19.4744 35.432 18.7864 34.856 18.5304 33.704L17.3304 27.944C17.1064 26.792 16.4184 26.216 15.2664 26.216H8.01844C6.89844 26.216 6.21044 26.792 5.95444 27.944L4.75444 33.704C4.53044 34.856 3.84244 35.432 2.69044 35.432H2.11444C0.930438 35.432 0.338438 34.904 0.338438 33.848ZM7.53844 20.312C7.53844 21.368 8.13044 21.896 9.31444 21.896H13.9224C15.1064 21.896 15.6984 21.384 15.6984 20.36C15.6984 20.072 15.6824 19.88 15.6504 19.784L13.0104 7.064C12.7864 5.912 12.3064 5.336 11.5704 5.336C10.8664 5.336 10.3864 5.912 10.1304 7.064L7.58644 19.784C7.55444 19.88 7.53844 20.056 7.53844 20.312ZM27.9984 8.36C27.5184 7.88 27.2784 7.384 27.2784 6.872C27.2784 6.36 27.5184 5.864 27.9984 5.384C28.4784 4.904 28.9744 4.664 29.4864 4.664C29.9984 4.664 30.4944 4.904 30.9744 5.384C31.4544 5.864 31.6944 6.36 31.6944 6.872C31.6944 7.384 31.4544 7.88 30.9744 8.36C30.4944 8.84 29.9984 9.08 29.4864 9.08C28.9744 9.08 28.4784 8.84 27.9984 8.36ZM29.2464 35.432C27.9664 35.432 27.3264 34.792 27.3264 33.512V13.64C27.3264 12.36 27.9664 11.72 29.2464 11.72H29.7264C31.0064 11.72 31.6464 12.36 31.6464 13.64V33.512C31.6464 34.792 31.0064 35.432 29.7264 35.432H29.2464ZM39.3703 35.384C38.0903 35.384 37.4503 34.744 37.4503 33.464V16.616C37.4503 15.688 37.7703 14.904 38.4103 14.264L39.9943 12.68C40.6343 12.04 41.4183 11.72 42.3463 11.72H43.4983C44.7783 11.72 45.4183 12.36 45.4183 13.64V14.168C45.4183 15.448 44.7783 16.088 43.4983 16.088C42.3783 16.088 41.8183 16.728 41.8183 18.008V33.464C41.8183 34.744 41.1783 35.384 39.8983 35.384H39.3703ZM50.2341 35.432C48.9541 35.432 48.3141 34.792 48.3141 33.512V2.84C48.3141 1.56 48.9541 0.919998 50.2341 0.919998H50.7141C51.9941 0.919998 52.6341 1.56 52.6341 2.84V33.512C52.6341 34.792 51.9941 35.432 50.7141 35.432H50.2341ZM58.6547 8.36C58.1747 7.88 57.9347 7.384 57.9347 6.872C57.9347 6.36 58.1747 5.864 58.6547 5.384C59.1347 4.904 59.6307 4.664 60.1427 4.664C60.6547 4.664 61.1507 4.904 61.6307 5.384C62.1107 5.864 62.3507 6.36 62.3507 6.872C62.3507 7.384 62.1107 7.88 61.6307 8.36C61.1507 8.84 60.6547 9.08 60.1427 9.08C59.6307 9.08 59.1347 8.84 58.6547 8.36ZM59.9027 35.432C58.6227 35.432 57.9827 34.792 57.9827 33.512V13.64C57.9827 12.36 58.6227 11.72 59.9027 11.72H60.3827C61.6627 11.72 62.3027 12.36 62.3027 13.64V33.512C62.3027 34.792 61.6627 35.432 60.3827 35.432H59.9027ZM70.0266 35.48C68.7466 35.48 68.1066 34.84 68.1066 33.56V16.616C68.1066 15.688 68.4266 14.904 69.0666 14.264L70.6506 12.68C71.2906 12.04 72.0746 11.72 73.0026 11.72H78.9546C79.8506 11.72 80.6346 12.056 81.3066 12.728L82.8426 14.264C83.4826 14.904 83.8026 15.688 83.8026 16.616V33.56C83.8026 34.84 83.1626 35.48 81.8826 35.48H81.4026C80.1226 35.48 79.4826 34.84 79.4826 33.56V18.008C79.4826 16.728 78.8426 16.088 77.5626 16.088H74.3946C73.1146 16.088 72.4746 16.728 72.4746 18.008V33.56C72.4746 34.84 71.8346 35.48 70.5546 35.48H70.0266ZM91.5913 34.376L90.0553 32.84C89.4153 32.2 89.0953 31.416 89.0953 30.488V16.568C89.0953 15.64 89.4153 14.856 90.0553 14.216L91.5913 12.68C92.2313 12.04 93.0153 11.72 93.9433 11.72H99.8473C100.775 11.72 101.559 12.04 102.199 12.68L103.735 14.216C104.375 14.856 104.695 15.64 104.695 16.568V24.584C104.695 25.864 104.055 26.504 102.775 26.504H95.3833C94.1033 26.504 93.4633 27.144 93.4633 28.424V29.096C93.4633 30.376 94.1033 31.016 95.3833 31.016H102.775C104.055 31.016 104.695 31.656 104.695 32.936V33.464C104.695 34.744 104.055 35.384 102.775 35.384H93.9433C93.0473 35.384 92.2633 35.048 91.5913 34.376ZM93.4633 20.744C93.4633 22.024 94.1033 22.664 95.3833 22.664H98.4073C99.6873 22.664 100.327 22.024 100.327 20.744V17.96C100.327 16.68 99.6873 16.04 98.4073 16.04H95.3833C94.1033 16.04 93.4633 16.68 93.4633 17.96V20.744ZM120.655 34.472L119.071 32.888C118.431 32.248 118.111 31.464 118.111 30.536V5.816C118.111 4.888 118.431 4.104 119.071 3.464L120.655 1.88C121.295 1.24 122.079 0.919998 123.007 0.919998H132.223C133.151 0.919998 133.935 1.24 134.575 1.88L136.159 3.464C136.799 4.104 137.119 4.888 137.119 5.816V12.392C137.119 13.672 136.479 14.312 135.199 14.312H134.671C133.391 14.312 132.751 13.672 132.751 12.392V7.208C132.751 5.928 132.111 5.288 130.831 5.288H124.399C123.119 5.288 122.479 5.928 122.479 7.208V29.144C122.479 30.424 123.119 31.064 124.399 31.064H130.831C132.111 31.064 132.751 30.424 132.751 29.144V24.44C132.751 23.16 133.391 22.52 134.671 22.52H135.199C136.479 22.52 137.119 23.16 137.119 24.44V30.536C137.119 31.464 136.799 32.248 136.159 32.888L134.575 34.472C133.935 35.112 133.151 35.432 132.223 35.432H123.007C122.079 35.432 121.295 35.112 120.655 34.472ZM144.467 34.472L142.883 32.888C142.243 32.248 141.923 31.464 141.923 30.536V16.616C141.923 15.688 142.243 14.904 142.883 14.264L144.467 12.68C145.107 12.04 145.891 11.72 146.819 11.72H152.771C153.699 11.72 154.483 12.04 155.123 12.68L156.659 14.216C157.299 14.92 157.619 15.72 157.619 16.616V30.536C157.683 31.432 157.363 32.232 156.659 32.936L155.123 34.472C154.483 35.112 153.699 35.432 152.771 35.432H146.819C145.891 35.432 145.107 35.112 144.467 34.472ZM146.291 29.144C146.291 30.424 146.931 31.064 148.211 31.064H151.331C152.611 31.064 153.251 30.424 153.251 29.144V18.008C153.251 16.728 152.611 16.088 151.331 16.088H148.211C146.931 16.088 146.291 16.728 146.291 18.008V29.144ZM164.808 35.48C163.528 35.48 162.888 34.84 162.888 33.56V16.616C162.888 15.688 163.208 14.904 163.848 14.264L165.432 12.68C166.072 12.04 166.856 11.72 167.784 11.72H173.736C174.632 11.72 175.416 12.056 176.088 12.728L177.624 14.264C178.264 14.904 178.584 15.688 178.584 16.616V33.56C178.584 34.84 177.944 35.48 176.664 35.48H176.184C174.904 35.48 174.264 34.84 174.264 33.56V18.008C174.264 16.728 173.624 16.088 172.344 16.088H169.176C167.896 16.088 167.256 16.728 167.256 18.008V33.56C167.256 34.84 166.616 35.48 165.336 35.48H164.808ZM186.277 35.48C184.997 35.48 184.357 34.84 184.357 33.56V16.616C184.357 15.688 184.677 14.904 185.317 14.264L186.901 12.68C187.541 12.04 188.325 11.72 189.253 11.72H195.205C196.101 11.72 196.885 12.056 197.557 12.728L199.093 14.264C199.733 14.904 200.053 15.688 200.053 16.616V33.56C200.053 34.84 199.413 35.48 198.133 35.48H197.653C196.373 35.48 195.733 34.84 195.733 33.56V18.008C195.733 16.728 195.093 16.088 193.813 16.088H190.645C189.365 16.088 188.725 16.728 188.725 18.008V33.56C188.725 34.84 188.085 35.48 186.805 35.48H186.277ZM207.841 34.376L206.305 32.84C205.665 32.2 205.345 31.416 205.345 30.488V16.568C205.345 15.64 205.665 14.856 206.305 14.216L207.841 12.68C208.481 12.04 209.265 11.72 210.193 11.72H216.097C217.025 11.72 217.809 12.04 218.449 12.68L219.985 14.216C220.625 14.856 220.945 15.64 220.945 16.568V24.584C220.945 25.864 220.305 26.504 219.025 26.504H211.633C210.353 26.504 209.713 27.144 209.713 28.424V29.096C209.713 30.376 210.353 31.016 211.633 31.016H219.025C220.305 31.016 220.945 31.656 220.945 32.936V33.464C220.945 34.744 220.305 35.384 219.025 35.384H210.193C209.297 35.384 208.513 35.048 207.841 34.376ZM209.713 20.744C209.713 22.024 210.353 22.664 211.633 22.664H214.657C215.937 22.664 216.577 22.024 216.577 20.744V17.96C216.577 16.68 215.937 16.04 214.657 16.04H211.633C210.353 16.04 209.713 16.68 209.713 17.96V20.744ZM228.28 34.424L226.696 32.84C226.056 32.2 225.736 31.416 225.736 30.488V16.616C225.736 15.688 226.056 14.904 226.696 14.264L228.28 12.68C228.92 12.04 229.704 11.72 230.632 11.72H239.416C240.696 11.72 241.336 12.36 241.336 13.64V14.168C241.336 15.448 240.696 16.088 239.416 16.088H232.024C230.744 16.088 230.104 16.728 230.104 18.008V29.096C230.104 30.376 230.744 31.016 232.024 31.016H239.416C240.696 31.016 241.336 31.656 241.336 32.936V33.464C241.336 34.744 240.696 35.384 239.416 35.384H230.632C229.704 35.384 228.92 35.064 228.28 34.424ZM248.981 32.888C248.341 32.248 248.021 31.464 248.021 30.536V17.96C248.021 16.68 247.397 16.04 246.149 16.04C244.869 16.04 244.229 15.4 244.229 14.12V13.64C244.229 12.36 244.869 11.72 246.149 11.72C247.397 11.72 248.021 11.08 248.021 9.8V7.304C248.021 6.024 248.661 5.384 249.941 5.384H250.469C251.749 5.384 252.389 6.024 252.389 7.304V9.8C252.389 11.08 253.029 11.72 254.309 11.72H256.229C257.509 11.72 258.149 12.36 258.149 13.64V14.12C258.149 15.4 257.509 16.04 256.229 16.04H254.309C253.029 16.04 252.389 16.68 252.389 17.96V29.144C252.389 30.424 253.029 31.064 254.309 31.064H256.229C257.509 31.064 258.149 31.704 258.149 32.984V33.512C258.149 34.792 257.509 35.432 256.229 35.432H252.917C251.989 35.432 251.205 35.112 250.565 34.472L248.981 32.888Z" fill="#1565C0"/>
</svg>
